<?xml version="1.0" encoding="UTF-8" standalone="no"?>
<!-- Created with Inkscape (http://www.inkscape.org/) -->
<svg
   xmlns:dc="http://purl.org/dc/elements/1.1/"
   xmlns:cc="http://web.resource.org/cc/"
   xmlns:rdf="http://www.w3.org/1999/02/22-rdf-syntax-ns#"
   xmlns:svg="http://www.w3.org/2000/svg"
   xmlns="http://www.w3.org/2000/svg"
   xmlns:sodipodi="http://sodipodi.sourceforge.net/DTD/sodipodi-0.dtd"
   xmlns:inkscape="http://www.inkscape.org/namespaces/inkscape"
   width="75"
   height="150"
   id="svg2"
   sodipodi:version="0.32"
   inkscape:version="0.45.1"
   sodipodi:docbase="C:\Documents and Settings\Mattias\Desktop"
   sodipodi:docname="1-2_note_minim_(music).svg"
   inkscape:output_extension="org.inkscape.output.svg.inkscape"
   version="1.0">
  
     id="base"
     pagecolor="#ffffff"
     bordercolor="#666666"
     borderopacity="1.0"
     gridtolerance="10000"
     guidetolerance="10"
     objecttolerance="10"
     inkscape:pageopacity="0.0"
     inkscape:pageshadow="2"
     inkscape:zoom="2.52"
     inkscape:cx="37.5"
     inkscape:cy="75"
     inkscape:document-units="px"
     inkscape:current-layer="layer1"
     inkscape:window-width="765"
     inkscape:window-height="579"
     inkscape:window-x="1711"
     inkscape:window-y="365" />
  <g
     inkscape:label="Layer 1"
     inkscape:groupmode="layer"
     id="layer1">
    <g
       id="g7217"
       transform="translate(-176.74144,-451.25654)">
      <path
         id="path4301"
         style="font-size:144px;font-style:normal;font-variant:normal;font-weight:normal;font-stretch:normal;text-align:start;line-height:100%;writing-mode:lr-tb;text-anchor:start;fill:#000000;fill-opacity:1;stroke:none;stroke-width:1px;stroke-linecap:butt;stroke-linejoin:miter;stroke-opacity:1;font-family:Bitstream Vera Sans"
         d="M 225.4099,474.82045 L 224.8474,475.32045 L 224.8474,562.32045 L 224.8474,562.3517 L 225.2849,563.1017 L 231.7849,562.6017 L 232.0974,562.32045 L 232.0974,524.2267 L 232.0974,491.63295 L 232.0974,478.07045 L 232.0974,475.32045 L 231.5349,474.82045 L 225.4099,474.82045 z " />
      <path
         id="path4303"
         d="M 210.21875,557.84375 C 200.28123,558.92191 195.31249,562.54689 195.3125,568.6875 C 195.31249,576.56253 200.99999,580.5 212.34375,580.5 L 216.34375,580.5 C 226.8437,578.39065 232.0937,573.73438 232.09375,566.5625 L 232.09375,562.34375 L 224.84375,562.34375 C 220.67184,559.34379 216.34371,557.84377 211.84375,557.84375 L 210.21875,557.84375 z M 216.59375,561.0625 C 219.21201,561.08533 221.5131,561.77898 222.5,563.59375 C 224.64645,567.5407 224.24215,570.25856 217.40625,574.8125 L 215.5,575.875 C 207.47309,579.43808 202.34236,578.87616 200.125,574.1875 C 198.39599,570.53147 200.89672,566.82578 207.625,563.0625 L 208.78125,562.5625 C 211.05013,561.7065 213.97549,561.03967 216.59375,561.0625 z "
         style="font-size:144px;font-style:normal;font-variant:normal;font-weight:normal;font-stretch:normal;text-align:start;line-height:100%;writing-mode:lr-tb;text-anchor:start;fill:#000000;fill-opacity:1;stroke:none;stroke-width:1px;stroke-linecap:butt;stroke-linejoin:miter;stroke-opacity:1;font-family:Bitstream Vera Sans" />
    </g>
  </g>
</svg>
